<svg t="1640744302951" class="icon" viewBox="0 0 1024 1024" version="1.1" xmlns="http://www.w3.org/2000/svg" p-id="2124" width="48" height="48"><path d="M395.636364 157.533091a157.533091 155.159273 90 1 0 310.318545 0 157.533091 155.159273 90 1 0-310.318545 0Z" p-id="2125" fill="#ffffff"></path><path d="M46.545455 551.377455a118.155636 116.363636 90 1 0 232.727272 0 118.155636 116.363636 90 1 0-232.727272 0Z" p-id="2126" fill="#ffffff"></path><path d="M802.909091 275.688727a19.688727 19.386182 90 1 0 38.772364 0 19.688727 19.386182 90 1 0-38.772364 0Z" p-id="2127" fill="#ffffff"></path><path d="M366.778182 186.088727a121.483636 121.483636 0 0 0-174.778182 0c-48.244364 49.477818-48.244364 129.722182 0 179.2a121.483636 121.483636 0 0 0 174.778182 0c48.244364-49.477818 48.244364-129.722182 0-179.2z" p-id="2128" fill="#ffffff"></path><path d="M899.863273 551.377455a39.377455 38.795636 90 1 0 77.591272 0 39.377455 38.795636 90 1 0-77.591272 0Z" p-id="2129" fill="#ffffff"></path><path d="M766.557091 829.533091a59.066182 58.181818 90 1 0 116.363636 0 59.066182 58.181818 90 1 0-116.363636 0Z" p-id="2130" fill="#ffffff"></path><path d="M473.227636 945.221818a78.778182 77.568 90 1 0 155.136 0 78.778182 77.568 90 1 0-155.136 0Z" p-id="2131" fill="#ffffff"></path><path d="M182.295273 827.066182a98.466909 96.977455 90 1 0 193.954909 0 98.466909 96.977455 90 1 0-193.954909 0Z" p-id="2132" fill="#ffffff"></path></svg>